# xmcd CD database file
#
# Track frame offsets:
#	150
#	21787
#	42385
#	61677
#	83851
#	104779
#	124958
#	145137
#	169023
#	193663
#	212420
#	231984
#	254778
#	270612
#	289026
#	310890
#
# Disc length: 4436 seconds
#
# Revision: 1
# Processed by: cddbd v1.5.2PL0 Copyright (c) Steve Scherf et al.
# Submitted via: CDex 1.51
#
DISCID=f0115210
DTITLE=Various Artist - D's Salsa 2
DYEAR=2010
DGENRE=Salsa
TTITLE0=Galy Galiano - La Cita
TTITLE1=George Lamond - Que Te Vas
TTITLE2=Gilberto Santa Rosa - La Agarro Bajando
TTITLE3=Gilberto Santa Rosa - Te propongo
TTITLE4=Gilberto Santa Rosa - Yo no te pido
TTITLE5=Gilberto Santarosa Cuenta Regresiva
TTITLE6=Gilberto Santarrosa- Conteo Regresivo
TTITLE7=Giro - Amor Lunatico
TTITLE8=Grupo Niche - Un Dia Despues (salsa)
TTITLE9=Huey Dunbar - Te Amare
TTITLE10=India - Estupida
TTITLE11=Jennifer Lopez and Marc Anthony - No Me Ames (salsa)
TTITLE12=Los Aadolescentes - Confianza
TTITLE13=Los Adolecentes - Dame un Beso que me dure Hasta el Lunes (Los Adolescentes, piste )
TTITLE14=Los Adolecentes - MeTengoQue Ir
TTITLE15=Los Adolecentes - Persona Ideal
EXTD=YEAR: 2010
EXTT0=
EXTT1=
EXTT2=
EXTT3=
EXTT4=
EXTT5=
EXTT6=
EXTT7=
EXTT8=
EXTT9=
EXTT10=
EXTT11=
EXTT12=
EXTT13=
EXTT14=
EXTT15=
PLAYORDER=
